<svg width="1342" height="1336" viewBox="0 0 1342 1336" fill="none" xmlns="http://www.w3.org/2000/svg">
<g filter="url(#filter0_ddddd_1787_795)">
<g clip-path="url(#clip0_1787_795)">
<rect x="52.416" y="49.0938" width="1221" height="1221" rx="610.5" fill="url(#paint0_radial_1787_795)"/>
<path d="M653.522 690.869C646.276 693.561 638.894 695.98 631.164 696.948C620.618 698.276 610.456 695.844 600.989 701.03C591.522 706.216 582.676 716.179 570.939 716.887C567.837 717.073 563.246 715.547 561.025 716.577C559.673 717.197 551.682 726.751 549.375 728.909C545.442 732.57 534.039 739.791 531.93 742.979C529.821 746.168 529.151 751.838 527.364 755.536C523.605 763.29 520.552 767.409 518.195 776.516C516.954 781.293 515.49 788.465 515.13 793.328C515.068 794.085 514.572 796.517 515.8 796.393C525.503 736.019 600.344 707.953 647.715 747.061C649.626 735.361 659.651 731.192 670.123 736.304C675.247 738.81 691.699 756.801 696.364 762.136C736.775 808.267 730.013 875.068 690.198 919.064C670.582 940.74 639.378 960.009 610.617 965.567C601.597 967.317 588.135 970.083 579.152 969.786C554.797 968.979 524.51 961.994 503.257 949.748C499.398 947.527 497.016 944.289 493.827 942.043C491.47 940.38 488.219 939.45 485.7 937.837C476.581 931.968 460.699 916.992 454.248 908.307C445.277 896.198 438.478 883.43 430.947 870.626C427.696 865.105 428.093 862.015 426.381 856.693C425.128 852.809 422.175 848.826 420.884 844.372C419.222 838.677 419.606 832.895 418.341 827.734C416.368 819.669 413.775 819.148 413.7 808.403C413.638 799.929 411.604 794.048 411.641 785.102C411.678 778.775 410.425 775.325 410.251 769.99C410.152 766.702 411.554 763.526 410.834 760.188C406.095 758.551 400.983 754.642 403.402 749.121C391.727 749.344 380.225 749.295 368.848 746.329C363.674 744.977 344.864 738.786 351.304 730.932C354.48 727.061 369.629 727.78 374.965 727.185C380.3 726.589 409.916 720.919 411.988 716.924C411.988 713.326 412.013 710.075 412.497 706.489C413.303 700.459 416.914 693.127 417.038 687.729C417.1 684.925 416.169 682.605 416.604 679.069C417.621 670.793 423.366 661.748 424.482 654.751C425.81 646.376 425.041 642.84 428.837 634.44C433.391 624.402 434.52 624.043 437.138 612.591C439.247 603.397 445.314 597.677 448.081 589.96C454.012 573.483 459.794 557.514 463.479 540.268C465.774 529.523 465.799 518.158 469.335 507.761C474.856 491.52 487.288 477.45 495.328 462.487C499.472 454.782 502.587 446.171 506.991 438.516C514.287 425.848 526.582 407.361 535.354 395.611C542.96 385.425 551.757 377.062 564.053 372.918C607.255 361.503 641.487 353.339 686.401 362.297C690.756 363.166 704.342 367.62 707.233 367.434C709.293 367.297 711.923 364.779 713.995 363.91C721.924 360.56 729.691 359.146 738.19 357.955C776.677 352.557 831.282 343.488 867.623 357.173C906.421 371.789 940.988 423.13 962.8 457.275C976.857 479.298 978.942 491.867 970.927 517.364C968.222 525.975 963.073 532.687 959.934 540.628C955.938 550.703 954.934 562.043 950.293 572.105C944.226 585.27 922.923 609.749 911.446 618.906C897.301 630.184 880.316 635.842 865.687 645.78C851.158 655.656 838.565 668.064 825.488 679.578C807.782 695.161 788.625 704.293 768.153 715.423C748.81 725.944 726.49 743.898 704.95 726.788C699.144 722.185 696.637 716.179 692.853 710.063C682.89 714.827 676.86 730.026 663.783 724.778C652.902 720.41 654.179 702.06 653.075 692.432C653.001 691.799 653.447 691.427 653.51 690.881L653.522 690.869ZM502.09 673.734V685.037C502.09 687.419 503.517 694.727 504.336 697.184C504.795 698.549 505.453 700.521 506.88 701.142C505.093 683.275 522.19 670.992 521.284 653.87C522.289 653.746 522.513 655.669 522.587 656.326C522.848 658.684 522.252 661.178 522.984 663.461L533.605 651.128C532.128 658.175 526.632 663.783 523.22 669.85C520.838 674.094 518.331 679.28 516.657 683.846C514.572 689.504 512.289 695.844 513.753 701.824C524.982 691.079 537.302 688.834 552.253 692.432C564.177 695.298 569.115 703.474 578.023 690.385C583.631 682.146 587.304 669.627 589.339 659.9C591.597 649.093 591.063 636.971 598.694 628.149C600.803 625.718 604.414 622.306 607.615 622.678C601.423 628.323 598.917 637.554 598.036 645.631C602.416 639.676 609.054 635.569 616.349 634.155C616.945 634.043 619.91 633.323 619.253 634.998C617.082 640.631 606.97 645.842 604.513 651.785L588.433 692.221C597.614 687.581 607.664 677.469 617.851 675.397C618.558 675.248 620.742 674.441 620.63 675.769L614.464 679.876C631.127 681.377 647.666 681.551 661.686 671.265C666.897 667.443 670.47 662.369 675.111 657.964C675.396 659.701 673.696 662.418 672.828 663.895C671.19 666.662 669.081 669.069 667.232 671.65C668.088 672.32 678.448 667.295 680.036 666.302C705.161 650.694 700.992 601.759 705.112 576.262C706.675 566.609 711.65 558.643 714.008 549.536C717.37 536.558 716.886 526.434 714.814 513.394C714.703 512.674 713.896 511.161 715.174 511.322C721.353 526.173 722.494 541.683 718.263 557.217C716.018 565.467 712.841 571.981 711.762 580.865C710.67 589.885 711.626 598.67 711.055 607.566C710.161 621.76 705.087 635.792 704.218 650.061C703.399 663.548 703.126 698.809 711.464 709.256C718.723 718.338 728.859 716.08 738.239 712.172C747.619 708.264 776.814 694.032 783.625 688.362C794.928 678.945 791.02 658.634 789.854 645.594C790.884 645.755 791.368 647.927 791.727 648.845C794.494 655.867 796.541 663.771 797.373 671.29C797.708 674.33 796.579 677.816 798.402 680.533C812.013 672.158 821.679 659.701 834.061 649.726C839.384 645.433 852.424 638.497 853.528 631.512C854.322 626.45 851.965 619.129 850.34 614.241C845.464 599.612 836.878 586.473 830.972 572.292C844.794 587.776 857.325 605.853 863.864 625.742C882.884 618.05 904.746 609.253 915.776 591.027C910.342 578.867 901.16 567.75 891.271 558.929C885.378 553.668 878.554 549.301 872.747 543.879C871.854 543.047 865.849 537.489 866.593 536.67C881.11 544.946 894.708 554.462 907.016 565.778C911.421 569.822 918.071 578.334 922.389 581.25C923.084 581.721 923.382 582.068 924.337 581.82C925.243 581.585 931.93 573.272 932.91 571.832C940.591 560.529 940.851 547.961 945.541 535.814C948.767 527.451 954.896 520.429 956.993 511.632C957.043 511.049 956.72 510.689 956.398 510.255C955.74 509.386 948.519 503.53 947.08 502.426C936.992 494.696 930.925 493.604 919.473 489.572C918.369 489.187 917.649 489.932 917.972 488.033C927.997 487.872 938.94 490.291 947.899 494.758C950.69 496.148 957.216 501.458 959.437 501.731C960.901 501.917 960.231 501.557 960.517 500.776C966.423 484.658 954.499 468.777 946.211 456.01C912.873 404.693 883.964 358.501 815.5 361.23C791.43 362.198 760.064 365.858 736.13 369.568C715.596 372.744 702.233 387.224 683.275 388.663C682.357 388.737 679.031 389.246 678.833 387.993C683.97 386.43 689.243 384.134 693.92 381.491C694.603 381.107 700.509 378.067 699.379 377.025C685.508 374.357 670.718 370.312 656.587 369.456C629.625 367.831 602.069 375.002 576.038 381.467C569.264 383.154 563.866 384.817 558.01 388.799C546.161 396.864 528.022 426.282 519.572 439.434C513.046 449.595 509.336 460.34 503.53 470.663C496.457 483.244 486.072 495.304 480.675 508.791C476.866 518.32 476.258 528.667 474.633 538.717C490.663 530.417 510.403 536.236 522.587 548.308C513.691 545.417 504.51 539.325 494.832 538.73C490.365 538.457 475.625 540.851 473.405 544.685C472.511 546.236 468.553 560.703 469.149 561.323C474.906 560.132 481.953 560.393 487.499 562.502C488.368 562.837 489.509 562.899 489.708 564.053C482.387 563.395 475.079 562.39 468.491 566.472C467.685 569.711 457.821 587.019 459.57 588.719C461.208 588.93 462.771 588.198 464.397 588.347C467.35 588.607 469.546 591.101 472.449 591.324C475.749 591.585 478.752 590.369 482.909 591.076C491.197 592.503 512.016 609.352 517.413 616.176C519.163 618.397 521.222 621.561 521.917 624.34C519.448 622.529 517.637 619.129 515.515 617.045C510.713 612.342 488.417 596.511 482.474 595.605C478.392 594.985 472.809 596.312 468.95 595.419C467.61 595.109 466.804 593.806 465.352 593.533C463.677 593.21 459.26 593.285 457.895 594.24C457.151 594.761 449.793 608.447 449.161 610.171C448.342 612.417 447.535 614.278 447.92 616.797C473.256 612.454 497.549 628.993 507.525 651.748C492.326 633.733 472.077 618.658 447.064 622.976C442.659 631.09 437.572 639.117 435.587 648.311C439.235 648.237 442.485 647.381 446.232 647.604C454.595 648.113 472.474 656.748 479.075 662.034C480.886 663.485 491.693 674.826 490.39 676.402C486.817 673.238 483.231 670.012 479.248 667.344C469.546 660.83 448.366 650.867 436.927 654.788C434.57 655.594 432.125 663.436 431.157 666.153C430.128 669.056 425.475 682.506 428.018 684.342C432.038 684.491 435.984 683.089 440.029 683.263C453.441 683.834 469.099 694.392 477.387 704.492C473.901 703.189 471.06 700.484 467.809 698.66C455.786 691.936 442.436 686.414 428.527 690.236C427.075 690.893 424.036 702.147 423.577 704.467C422.882 708.003 421.84 711.899 423.353 715.361C429.433 714.517 435.041 716.974 440.736 717.507C444.061 717.817 447.585 717.222 450.935 717.594C459.496 718.537 470.216 724.976 477.71 729.158L495.204 718.872C488.914 710.013 484.546 699.876 481.507 689.429C487.723 697.618 491.383 708.313 500.465 713.996L503.331 711.552C498.914 700.323 497.016 690.211 500.192 678.312C500.515 677.084 500.986 674.267 502.053 673.66L502.09 673.734ZM546.633 699.777C528.319 694.901 521.359 707.432 509.646 717.259C485.043 737.88 461.084 745.436 429.718 750.387C424.966 751.143 419.371 750.573 415.102 752.88C415.115 754.655 431.679 757.099 433.937 757.322C474.794 761.417 517.798 746.404 546.31 716.912C548.097 715.063 556.286 705.807 556.856 704.144C557.278 702.904 553.556 701.737 552.812 702.11C543.965 713.624 532.588 723.649 520.131 731.155C517.041 733.016 512.711 735.609 509.435 736.912C508.778 737.173 507.339 738.016 506.904 737.123C522.624 727.83 537.439 715.807 546.645 699.789L546.633 699.777ZM474 731.279C467.486 726.875 457.61 722.296 449.706 721.676C445.959 721.378 441.865 721.912 438.044 721.688C434.768 721.502 425.996 718.587 423.651 721.713C422.398 723.388 420.4 743.488 421.244 744.319C439.421 742.756 457.275 738.488 474 731.292V731.279ZM413.018 725.125C395.983 731.85 378.501 734.257 360.262 735.051C374.965 742.992 393.501 742.967 409.78 740.721C411.703 740.721 412.038 736.341 410.648 736.205C407.025 737.136 402.683 737.88 398.973 738.128C398.03 738.19 394.742 738.711 394.531 737.458L411.504 733.19L413.03 725.125H413.018ZM658.311 768.973C660.048 765.275 656.065 761.144 653.497 758.377C593.867 694.02 489.757 763.079 525.267 844.124C555.479 913.084 656.599 902.6 672.245 829.161C674.155 820.178 674.428 813.379 671.326 804.607C670.135 804.445 670.681 806.17 670.644 806.989C669.776 829.136 667.207 844.533 652.157 861.829C613.099 906.731 540.739 889.386 524.883 832.833C505.242 762.769 585.368 707.718 642.864 753.228C649.006 758.092 651.822 762.434 656.735 768.104C657.157 768.588 656.711 769.395 658.299 768.973H658.311ZM649.415 779.246C650.482 780.251 656.028 772.534 656.189 771.913C656.636 770.213 648.695 761.057 647.008 759.382C592.627 705.335 501.321 764.419 528.989 838.342C555.07 908.022 656.388 896.669 667.716 823.925C668.659 817.895 670.458 794.929 662.778 792.956C662.071 793.986 662.406 796.033 660.383 795.686C662.083 789.259 652.343 788.899 652.79 793.961C653.1 797.485 657.269 793.341 657.629 796.703C649.775 801.306 648.249 790.549 654.899 787.82L653.782 786.045L649.068 788.142L648.025 785.772L652.033 783.924L652.145 780.611L645.991 783.353C645.283 779.916 648.174 777.608 648.72 774.444C646.338 774.879 642.963 780.239 641.921 776.144L651.102 770.325C654.304 771.951 649.055 778.899 649.403 779.234L649.415 779.246ZM690.521 842.97H680.247L674.081 858.715C677.791 860.291 681.265 863.07 683.672 866.259L671.463 862.276L663.1 874.15L668.597 882.028C667.716 882.934 662.852 876.408 659.502 877.338C658.013 879.634 647.331 886.88 647.467 888.418C647.666 890.639 652.815 896.433 652.145 899.845L644.527 890.341L629.588 897.153L632.963 911.483L625.01 899.275L607.615 903.27C608.62 908.27 608.694 913.295 608.297 918.332L603.433 904.027L583.644 903.257C583.755 908.754 583.334 916.186 579.537 920.38C581.001 914.561 580.008 908.493 579.5 902.6L568.581 899.821L563.78 912.153L565.07 898.518L554.189 894.337C551.955 900.255 548.854 906.074 544.598 910.776L550.516 892.587L537.402 882.686C532.985 888.58 528.431 894.461 522.674 899.113C523.567 895.602 534.213 881.681 533.282 879.224L524.423 870.366C520.478 874.137 516.21 878.691 511.011 880.614L521.781 866.569L516.743 859.323L501.42 866.222L513.666 854.782L508.294 841.853L489.782 847.04L506.259 836.977L503.455 822.411C499.199 822.734 494.857 824.123 490.589 824.285C489.36 824.334 488.616 824.707 487.735 823.416L502.748 817.175C502.86 816.58 502.127 816.071 502.127 815.885V805.612L501.135 804.756C494.522 805.847 487.549 805.326 480.899 804.582L501.458 799.991L502.14 791.567C496.755 791.641 490.676 791.529 485.7 789.172L502.363 786.827L504.137 777.918C496.768 776.107 489.025 774.06 482.946 769.308C489.894 769.444 497.512 773.005 504.522 771.715C506.495 771.355 507.115 768.712 507.314 766.888L493.182 759.034C469.868 765.375 445.141 768.129 421.294 762.806C420.847 766.864 419.892 771.938 423.105 775.065C439.495 772.918 456.32 776.665 471.99 781.318C472.176 782.46 470.315 782.062 469.571 782.025C454.26 781.082 438.751 779.345 423.465 781.43C421.728 786.852 421.046 792.882 424.495 797.795C435.984 796.12 447.498 797.435 458.975 798.453C459.099 799.445 457.176 799.681 456.518 799.755C446.183 800.822 435.711 801.009 425.438 802.597C425.798 806.815 423.229 818.354 428.143 820.724C429.743 821.493 439.657 821.17 442.188 821.059L470.625 817.647C466.245 821.108 459.645 822.833 454.186 824.161C446.381 826.059 438.254 827.374 430.19 827.238C429.793 834.198 430.277 840.501 434.445 846.283C448.974 847.387 463.218 843.566 476.792 838.901C465.786 847.772 451.109 852.127 437.051 852.598C436.766 856.432 439.421 866.184 443.59 866.978C450.439 868.281 463.59 861.482 470.638 860.142C464.049 866.383 455.29 869.435 446.94 872.438C446.766 876.842 451.592 887.699 456.084 888.766C458.913 889.448 467.747 885.9 470.662 884.485L488.442 873.157C481.717 883.927 471.357 890.875 459.682 895.416C462.598 899.039 466.767 908.655 472.275 908.084C473.665 907.935 479.137 904.994 480.675 904.101C486.978 900.416 491.953 895.106 497.338 890.279C493.566 900.404 484.919 907.377 476.233 913.221C477.449 915.9 483.827 923.457 486.556 923.072C492.413 922.253 501.879 910.069 506.247 906.037C503.865 914.61 497.413 920.355 491.904 926.856C501.582 937.005 508.282 922.712 515.155 917.005C513.803 923.99 508.095 928.953 504.175 934.474C514.039 947.973 520.503 933.618 526.682 925.429L531.607 916.31C531.049 926.261 526.185 935.802 519.969 943.37C524.771 945.356 534.151 953.085 538.915 948.941C545.702 943.023 548.171 931 551.831 923.159C552.253 933.804 549.114 941.683 544.61 950.902C544.3 951.534 543.444 951.41 544.623 952.279C548.221 953.185 558.147 957.502 561.038 954.984C563.928 952.465 567.13 938.246 567.241 934.115L568.668 941.298L566.546 956.026C573.817 955.753 580.319 961.349 584.016 952.589C584.686 951.013 586.423 944.748 586.423 943.346V932.042C587.564 932.179 587.8 934.636 588.024 935.579C589.649 942.353 589.823 950.045 587.788 956.708C588.582 957.403 597.59 956.088 599.153 955.405C604.265 953.185 602.18 939.35 602.18 934.784C603.173 934.921 603.756 937.167 604.066 938.023C605.803 942.886 606.573 948.122 606.275 953.284C607.863 954.872 624.737 950.381 626.66 948.321C630.333 944.388 626.126 931.323 624.774 926.558C628.732 930.231 630.953 935.579 632.132 940.777C632.516 942.502 631.722 944.561 633.323 945.715C636.946 944.028 650.259 939.276 650.817 935.082C651.4 930.653 647.194 922.7 646.015 918.332C651.016 921.918 653.063 927.911 655.259 933.395C658.646 930.119 665.681 927.625 668.609 924.151C671.996 920.131 660.954 907.637 661.773 906.694C666.115 909.945 671.078 913.568 672.741 919.027C673.386 919.511 676.19 917.178 676.848 916.633C678.523 915.255 684.404 908.816 684.416 907.054C684.478 901.657 677.952 896.632 675.471 892.302L684.329 897.488L688.821 902.575C690.26 899.957 697.494 891.805 697.245 889.324C697.146 888.369 695.074 885.651 694.317 884.758L686.439 877.227L694.888 880.763C696.042 880.788 699.888 885.701 700.124 885.453C700.558 884.981 705.025 874.894 705.285 873.815C706.079 870.589 704.963 869.609 702.531 867.648C700.992 866.408 698.474 865.849 697.394 864.224C701.154 864.162 704.466 865.949 707.655 867.648C708.102 864.919 710.794 859.919 709.367 857.375C708.04 854.993 697.357 852.884 697.369 852.226C702.035 851.171 706.588 852.09 711.08 853.256C711.985 846.717 713.735 840.005 712.804 833.367L702.171 830.625L707.481 828.751L713.127 828.578L711.067 812.138L701.476 813.503L709.752 808.999C710.286 807.014 705.025 792.559 703.834 792.299L698.064 795.016C697.233 794.184 701.588 790.177 702.767 790.127C703.524 788.837 698.66 782.236 697.717 780.636L693.263 784.048L695.67 777.236C695 775.288 679.218 755.908 678.188 757.322C678.113 759.481 678.262 761.677 678.188 763.836C678.15 764.667 678.709 766.38 677.505 766.218C676.91 757.508 671.128 741.255 660.073 742.967C655.495 743.674 654.961 750.424 656.636 753.861C657.381 755.374 661.004 758.079 662.418 759.382L660.358 749.456C662.654 748.389 666.587 753.352 667.592 755.238C671.264 762.062 669.738 768.898 665.148 774.779C663.684 776.653 659.614 778.886 660.693 781.293C663.113 786.728 674.044 780.884 676.811 777.881C677.158 781.417 673.299 782.981 671.773 784.668C670.086 786.529 674.565 789.494 675.781 790.71L680.247 788.849L676.922 793.862L680.247 799.507L686.414 798.44L681.6 803.589L683.076 808.614L689.143 808.713L683.709 811.89L684.342 820.364C686.252 820.401 688.176 820.227 690.086 820.438C690.794 820.513 693.3 820.711 693.25 821.716L684.478 823.925L682.245 839.124L690.508 842.958L690.521 842.97ZM513.741 750.473L500.924 755.809L499.348 757.31C502.487 757.57 506.755 759.655 509.857 758.575C511.172 758.116 514.125 750.87 513.728 750.473H513.741Z" fill="#4F2B11"/>
<path d="M855.652 405.125C833.43 402.867 811.035 411.081 793.081 423.761L786.108 429.803C799.968 424.009 814.323 422.347 829.274 422.942C830.105 422.979 831.817 422.421 831.656 423.625C812.276 426.429 792.771 432.334 776.629 443.625C753.415 459.866 736.417 490.388 736.07 518.863C745.226 498.007 757.224 478.428 773.081 462L773.416 463.018C764.954 475.934 757.783 489.843 752.361 504.309C749.432 512.114 747.472 520.303 744.656 528.132C728.365 573.468 714.717 602.39 721.441 652.726C722.484 660.481 724.419 668.074 725.834 675.742C725.97 676.449 726.739 677.988 725.461 677.826C712.694 647.515 712.93 613.68 719.618 581.893C722.062 570.279 726.739 557.773 727.533 545.961C729.556 515.886 709.444 493.639 728.03 464.929C750.921 429.568 809.831 391.241 853.269 403.723C854.2 403.996 855.391 403.798 855.639 405.125H855.652ZM730.945 505.166C731.95 491.096 734.333 476.877 738.477 463.378C727.62 475.549 725.412 487.547 729.792 503.255C729.99 503.962 729.965 505.327 730.945 505.166Z" fill="#4F2B11"/>
<path d="M664.49 639.468C664.006 632.793 668.138 626.031 670.148 619.442C674.863 603.958 676.699 587.853 676.128 571.637L673.684 576.376L672.009 577.443C675.52 558.956 679.429 537.368 665.855 521.945C681.91 521.945 683.908 542.479 683.002 554.862C682.605 560.346 680.781 565.793 680.248 571.289C679.019 583.982 681.476 596.613 679.243 609.343C677.406 619.79 672.208 632.16 664.478 639.455L664.49 639.468Z" fill="#4F2B11"/>
<path d="M619.27 532.579C607.594 531.115 593.028 523.447 585.695 537.381C588.747 536.785 590.212 534.353 593.561 533.944C599.095 533.261 603.611 535.172 608.624 535.358C615.051 535.594 620.498 532.877 626.118 538.423L622.012 539.44L631.59 543.547C627.595 544.565 616.763 539.105 614.108 541.488C613.202 542.306 612.036 545.731 610.373 547.344C607.755 549.875 602.693 551.748 599.058 551.823C595.423 551.897 592.135 549.987 588.834 550.433C585.534 550.88 582.271 554.18 578.846 553.833C577.072 552.108 587.507 543.001 586.043 540.135L583.983 541.525L583.301 540.135L580.224 543.56C583.177 521.958 601.229 522.728 617.21 530.892C618.004 531.301 619.108 531.524 619.282 532.591L619.27 532.579Z" fill="#4F2B11"/>
<path d="M612.405 511.351C614.775 513.51 607.244 512.021 606.611 511.996C605.469 511.947 601.933 511.488 601.437 512.704C615.246 513.696 625.172 522.853 634.379 532.183L640.483 536.005C626.773 533.796 615.445 518.25 601.685 516.91C582.528 515.049 578.632 532.258 574.699 546.973L573.347 546.638C574.488 538.858 575.543 532.419 578.521 525.086C578.955 524.019 579.24 522.902 577.776 524.342C575.22 526.86 573.285 531.96 571.374 535.074L567.168 545.596C566.721 532.58 573.248 513.783 586.66 509.254C595.531 506.264 603.894 508.436 612.38 511.339L612.405 511.351Z" fill="#4F2B11"/>
<path d="M666.537 649.732C665.432 650.836 661.698 644.024 661.04 643.243C656.871 638.28 651.759 635.19 645.01 636.096C642.305 636.456 640.159 638.23 637.627 638.974C630.109 641.183 625.468 638.652 621.324 632.25C626.709 631.145 630.382 634.322 635.866 632.411C653.174 626.406 658.273 595.76 662.43 580.523L661.735 597.298C660.482 609.098 657.839 620.86 650.109 630.19C652.181 631.865 654.874 631.927 657.181 633.379C662.976 637.051 665.246 643.292 666.537 649.707V649.732Z" fill="#4F2B11"/>
<path d="M590.037 571.403C598.896 580.001 610.435 582.991 621.539 576.316C625.423 573.984 628.45 570.013 632.272 567.532C630.075 573.574 625.013 578.612 619.467 581.788C611.775 586.205 604.107 585.547 596.29 589.443C594.255 589.58 595.782 588.662 596.414 588.19C598.573 586.552 601.154 585.584 603.499 584.319C590.248 579.604 579.354 570.026 576.104 555.881C577.096 554.653 588.871 570.261 590.037 571.403Z" fill="#4F2B11"/>
<path d="M692.568 594.927C691.377 595.088 691.923 593.376 691.886 592.544C691.774 589.889 691.762 586.936 691.861 584.281C692.37 570.869 695.038 558.821 696.601 545.856C698.04 533.932 696.899 523.882 692.581 512.703C696.055 515.309 698.636 521.562 699.777 525.706C706.192 548.871 693.623 571.899 692.556 594.927H692.568Z" fill="#4F2B11"/>
<path d="M706.276 445.562C706.959 444.842 712.976 451.046 714.478 451.455C717.518 452.286 719.714 447.882 721.724 446.269C728.262 440.983 736.426 437.224 743.226 432.137C747.556 428.898 751.464 425.027 755.608 421.578C755.968 421.988 752.072 427.36 751.489 428.067C744.404 436.616 737.022 441.616 728.883 448.626C723.535 453.229 719.85 461.679 711.798 454.755C710.693 453.8 705.817 446.033 706.276 445.549V445.562Z" fill="#4F2B11"/>
<path d="M706.961 499.693L698.872 478.675C689.852 461.478 679.951 445.684 678.201 425.695L691.341 455.361C700.882 468.079 706.217 483.762 706.961 499.68V499.693Z" fill="#4F2B11"/>
<path d="M538.406 581.234L529.15 573.033L521.954 584.323C525.267 589.336 531.222 592.773 532.922 599.038L519.559 587.524L510.328 599.721L516.408 584.435L512.152 581.11L501.42 575.75C507.537 576.197 513.17 578.579 518.219 581.916C520.602 581.916 525.465 573.641 527.426 571.978L517.81 564.496L505.539 557.945C518.815 560.228 533.27 568.107 538.419 581.234H538.406Z" fill="#4F2B11"/>
<path d="M602.815 593.574C603.361 594.095 594.13 603.922 595.284 606.589C597.269 606.416 599.08 605.237 601.103 605.224C606.599 605.187 622.294 615.014 627.692 618.376C628.783 619.059 630.372 619.766 630.905 620.969C622.108 621.292 608.014 609.331 600.495 610.051C598.187 610.274 594.862 612.148 593.323 613.897L587.058 629.208C586.263 618.55 589.849 605.224 597.331 597.358C597.84 596.812 602.319 593.127 602.802 593.586L602.815 593.574Z" fill="#4F2B11"/>
<path d="M930.344 468.162C923.595 466.834 916.87 465.06 910.034 464.154C901.845 463.062 891.609 462.218 883.42 462.69C876.931 463.062 870.318 465.171 863.891 465.084C867.29 462.467 871.918 460.568 876.075 459.452C889.127 455.965 902.651 457.628 915.418 461.511C920.183 462.963 926.56 465.084 930.344 468.162Z" fill="#4F2B11"/>
<path d="M770.004 403.08C769.681 404.197 767.287 404.755 766.244 405.14C759.743 407.522 748.353 410.996 741.603 411.331C730.958 411.84 721.094 408.08 711.764 403.415C711.801 402.385 727.72 405.686 729.246 405.81C743.415 406.877 755.971 402.311 770.004 403.08Z" fill="#4F2B11"/>
<path d="M662.429 461.325C662.789 463.372 661.896 462.404 660.829 462.764C648.173 467.007 637.491 471.859 630.778 484.13C627.391 490.333 626.833 499.589 619.959 503.113C621.001 500.222 622.974 498.286 624.091 495.259C626.857 487.777 626.125 480.482 631.324 473.707C638.359 464.514 651.474 461.747 662.442 461.312L662.429 461.325Z" fill="#4F2B11"/>
<path d="M687.78 472.98C674.342 460.101 670.571 443.463 664.603 426.614L656.947 413.375C662.394 417.804 667.121 423.512 670.335 429.79C674.429 437.793 675.757 446.85 679.231 455.151C681.762 461.205 685.621 466.751 687.767 472.992L687.78 472.98Z" fill="#4F2B11"/>
<path d="M924.177 520.248L869.361 502.096C870.18 500.942 871.086 501.042 872.339 501.104C886.545 501.848 899.35 504.913 911.856 511.662C916.025 513.92 920.877 516.911 924.177 520.236V520.248Z" fill="#4F2B11"/>
<path d="M592.541 421.579C591.549 431.567 595.705 443.118 601.562 451.27C602.74 452.908 612.84 463.491 611.711 464.744C598.733 455.799 587.591 443.379 590.097 426.344C590.246 425.314 590.804 420.971 592.529 421.592L592.541 421.579Z" fill="#4F2B11"/>
<path d="M585.011 557.927C584.875 556.649 587.257 557.269 587.927 557.418C595.136 559.019 598.995 563.882 607.767 561.165C614.851 558.981 616.799 552.654 621.998 548.336C618.673 561.029 608.722 570.347 595.099 564.627C591.228 563.001 588.622 559.776 585.011 557.914V557.927Z" fill="#4F2B11"/>
<path d="M616.523 669.618C616.362 668.626 617.714 668.688 618.434 668.452C627.032 665.685 635.469 665.189 642.889 659.32C646.685 656.318 649.216 651.851 653.174 649.047C651.04 657.397 644.675 665.164 636.375 667.881C634.861 668.378 629.786 669.618 628.508 669.618H616.523Z" fill="#4F2B11"/>
<path d="M827.56 650.444C826.89 634.736 819.098 620.579 816.592 605.219L824.93 621.882C828.391 630.033 830.141 639.252 828.937 648.061C828.801 649.091 828.85 650.171 827.56 650.444Z" fill="#4F2B11"/>
<path d="M664.49 570.952C667.034 561.038 668.225 551.658 665.346 541.658C664.143 537.502 661.872 533.866 660.371 529.846C661.364 528.829 666.562 536.186 667.096 537.154C672.555 547.03 672.195 562.428 664.478 570.952H664.49Z" fill="#4F2B11"/>
<path d="M543.88 577.118C542.552 577.23 543.359 575.046 543.508 574.339C545.766 563.445 554.538 549.921 561.697 541.484C558.074 554.475 550.232 565.443 543.88 577.106V577.118Z" fill="#4F2B11"/>
<path d="M715.186 470.244C712.767 468.631 711.328 465.368 709.392 463.37C704.206 457.998 696.575 453.978 695.322 445.578C703.263 453.06 713.189 458.445 715.174 470.244H715.186Z" fill="#4F2B11"/>
<path d="M675.455 649.054L682.627 636.026L687.776 620.281C688.346 631.671 685.852 642.912 675.455 649.054Z" fill="#4F2B11"/>
<path d="M602.479 553.817C607.851 553.097 611.424 549.301 615.494 546.273C612.429 555.033 603.781 557.663 595.27 555.542C594.699 555.393 592.478 554.661 592.54 553.817C595.679 553.519 599.426 554.227 602.479 553.817Z" fill="#4F2B11"/>
<path d="M585.69 583.27C581.112 582.576 575.938 577.216 573.01 573.692C570.801 571.024 567.749 566.781 567.203 563.406L585.702 583.27H585.69Z" fill="#4F2B11"/>
<path d="M687.778 427.061L683.795 417.011L674.08 401.725C675.37 401.427 675.705 402.445 676.475 403.09C683.423 408.921 687.616 417.966 687.765 427.073L687.778 427.061Z" fill="#4F2B11"/>
<path d="M620.629 648.389C615.53 655.325 611.324 663.091 604.872 668.935C604.81 667.608 605.741 666.429 606.373 665.312C607.453 663.414 617.912 645.907 620.617 648.389H620.629Z" fill="#4F2B11"/>
<path d="M642.554 547.673L628.174 553.827C630.742 548.517 637.07 547.152 642.554 547.673Z" fill="#4F2B11"/>
<path d="M593.223 847.075L594.588 805.97C593.508 805.821 594.141 807.062 593.062 807.558C589.724 809.096 589.439 803.885 588.781 801.851L582.267 809.742C579.86 805.275 580.431 799.332 582.95 795.002C582.627 794.704 579.86 796.615 579.587 796.85C578.533 797.719 577.949 799.27 577.466 799.791C576.758 800.548 577.031 797.384 575.431 798.426C575.431 799.766 575.555 801.503 574.066 801.851L573.719 800.486L570.641 803.91C569.252 795.126 574.178 790.547 580.232 785.423C578.88 785.808 575.307 786.106 574.24 786.552C572.974 787.086 573.88 788.724 572.006 788.153L571.324 786.788C571.039 790.609 567.428 787.632 567.192 790.895L565.827 790.547C566.249 781.068 574.55 775.621 583.644 776.502C582.875 774.654 580.592 774.405 578.843 774.443L579.538 773.078L576.101 773.748L575.741 771.688L569.252 773.748C572.341 761.948 586.051 765.224 592.54 772.383L593.235 763.475L594.6 764.169C594.6 763.45 594.55 762.668 594.811 761.973C597.255 755.41 598.521 763.76 600.704 765.398L601.461 773.078C606.362 766.167 617.454 760.844 624.068 768.276L622.703 769.653L619.278 768.971V771.043H615.841L616.524 773.09C616.338 773.276 615.233 772.569 614.464 772.817C613.956 772.979 610.481 774.579 611.052 775.832C620.048 773.599 629.936 778.996 630.234 788.848L625.432 785.895L617.219 784.058C621.003 787.743 625.37 790.25 624.762 796.379C629.874 791.54 633.348 787.185 641.202 789.53C641.549 790.882 640.644 790.858 640.048 791.453C637.716 793.811 634.415 795.845 632.294 798.426C639.391 797.446 646.277 799.94 645.991 808.029C642.778 805.796 638.919 804.928 635.036 805.3C641.202 809.866 643.646 814.543 642.567 822.422L636.946 816.429L635.73 816.95L635.668 814.953C633.782 815.71 632.79 813.278 630.929 812.831C633.46 819.444 634.217 825.623 629.204 831.33C627.43 831.641 628.559 830.015 627.963 828.787C626.462 825.648 625.916 824.444 624.973 821.218C624.092 818.228 622.678 815.375 622.703 812.161C622.541 811.95 621.884 812.508 621.673 812.843C619.961 815.499 617.529 826.231 616.76 829.854C615.544 835.512 614.241 841.293 614.489 847.112H635.048C615.37 871.22 578.731 871.319 558.309 848.142C558.681 847.857 560.579 847.112 560.703 847.112H593.248L593.223 847.075ZM597.565 767.433C597.355 766.663 597.851 764.591 597.317 763.487C596.486 762.581 594.997 768.847 594.885 769.616C594.811 770.125 594.675 774.418 594.712 774.802C594.811 775.845 595.456 778.835 596.635 779.232C597.627 777.582 594.563 772.52 597.33 773.078L597.677 780.622C599.129 780.659 599.178 770.1 598.781 768.611C598.484 767.495 597.59 767.519 597.565 767.433ZM618.571 766.924C609.117 764.318 601.809 774.331 598.707 781.986C601.585 780.299 603.298 776.49 606.921 776.502L604.191 775.82L608.298 774.455L606.251 772.408L610.357 773.078L608.31 771.031H613.099L611.052 768.971L614.477 769.653L613.794 767.606L618.583 766.924H618.571ZM595.27 781.304C593.148 774.257 584.538 765.882 576.746 767.929C575.629 768.227 572.379 769.852 573.681 771.018C574.339 770.336 580.158 767.197 578.136 770.336L582.937 769.666L581.572 771.713H584.997L584.302 773.09H587.726L586.362 775.15C587.453 775.026 593.384 776.515 589.786 777.557L595.258 781.329L595.27 781.304ZM626.797 784.046C622.79 773.028 607.119 777.185 600.084 783.016L605.903 782.669L605.556 781.304L609.675 782.656L608.31 779.927L611.4 781.974L611.735 779.927L615.159 781.279L613.794 779.232L618.596 781.962L617.566 779.232L621.003 782.644V779.914L623.745 783.339V780.609L626.822 784.034L626.797 784.046ZM594.6 784.034C589.166 778.376 579.463 776.341 572.714 781.006C571.249 782.024 568.929 784.108 569.252 786.093L573.024 781.986L573.694 784.034L575.418 781.304H576.771L576.423 783.351L579.165 780.622L579.835 782.669C580.977 781.912 582.329 779.133 583.607 780.274L582.242 782.669L584.637 781.304L585.034 782.594L587.379 781.316C588.434 784.207 591.945 782.768 594.575 784.046L594.6 784.034ZM617.206 790.882L615.891 784.356C613.199 782.818 612.913 785.423 612.702 785.436C611.821 785.473 610.233 784.307 608.98 784.741L617.194 790.895L617.206 790.882ZM593.905 784.728C584.885 785.15 574.401 788.19 572.676 798.426L574.748 794.332C577.205 793.686 576.126 795.163 577.453 795.684L578.148 790.895L579.5 793.624L580.195 789.518L581.548 792.247L583.607 788.823L584.29 791.565L584.984 787.458L586.002 789.505C587.056 786.962 589.749 787.111 592.267 786.143C593.26 785.758 594.265 786.8 593.88 784.716L593.905 784.728ZM617.194 798.426C617.194 790.547 608.769 785.15 601.449 785.411C601.846 786.23 604.117 787.396 604.935 787.756C605.593 788.054 606.3 787.669 606.97 787.756L607.615 790.2L609.663 789.493L610.37 792.235L611.387 790.87L613.447 794.977L614.464 792.93L617.206 798.401L617.194 798.426ZM609.663 803.91C610.333 796.515 605.705 789.604 599.389 786.093L600.072 790.212L602.119 789.518L602.814 794.989L604.166 792.942V798.414L606.226 795.672L606.921 802.521L608.968 800.473L609.65 803.898L609.663 803.91ZM595.965 786.788C588.161 787.359 581.647 796.974 582.962 804.593L584.327 798.438L585.679 801.863V796.391L587.739 799.816C588.235 797.806 586.014 795.163 588.421 794.332L589.104 797.074L589.798 791.602L591.151 793.649V790.225L592.516 791.59C592.64 790.696 592.987 789.555 593.545 788.848C594.414 787.768 595.804 787.892 595.94 786.8L595.965 786.788ZM622.008 805.97C623.298 801.267 623.844 793.798 620.792 789.716C620.159 788.86 619.961 787.88 618.571 788.165L621.983 804.605C619.849 803.451 620.395 801.007 617.194 801.875L621.288 805.635C616.077 808.613 608.757 810.833 607.603 817.633L608.893 817.05L609.65 818.315V815.573L611.015 816.268L611.722 812.843L613.075 814.891L613.769 811.466C616.586 812.707 615.37 811.516 616.549 810.536C621.239 806.603 623.472 805.585 624.725 812.856L626.078 812.161L625.408 815.585L627.455 814.221L626.785 819.01L628.832 816.963L627.48 821.764L629.527 820.399C629.825 820.784 627.951 826.827 630.209 827.248C631.586 821.541 631.338 816.876 628.05 811.95C626.797 810.077 624.378 808.997 624.055 806.702C624.576 806.23 629.452 808.699 630.284 809.047C631.425 809.518 632.666 808.215 633.038 810.734L635.011 810.114L635.718 812.856L637.07 811.491C637.182 813.948 639.614 815.04 640.855 816.963C641.723 814.841 639.515 812.26 638.125 810.784C633.46 805.808 628.497 805.61 622.008 806.007V805.97ZM636.388 790.907C632.157 788.848 622.206 802.508 623.385 803.923L628.174 800.486L626.81 799.468C627.951 796.925 630.767 796.317 631.462 795.585C631.586 795.461 630.966 794.654 631.574 794.009C632.765 792.731 635.52 792.334 636.4 790.895L636.388 790.907ZM595.27 792.272L592.119 797.036C592.019 798.451 593.732 802.372 594.612 799.493C595.332 797.173 595.357 794.667 595.27 792.272ZM600.072 795.696V808.029C602.169 807.707 604.687 805.746 604.787 803.575C604.923 800.548 602.454 801.367 602.231 801.106C601.933 800.771 602.169 796.069 600.072 795.696ZM643.237 803.91C639.726 796.528 628.274 800.461 624.055 805.275L631.239 803.228L630.904 801.863L633.981 803.253C634.577 801.156 635.457 803.24 636.028 801.168L640.16 803.91L640.507 802.545L643.237 803.91ZM590.493 800.486C590.332 802.496 590.555 804.593 592.205 805.957L593.818 802.98L590.493 800.486ZM619.266 805.287L611.735 803.91V806.64C616.102 804.493 614.774 806.441 615.593 806.652C616.722 806.95 618.918 806.727 619.266 805.275V805.287ZM598.521 813.365C599.067 812.558 598.595 811.082 598.707 810.089L596.635 811.23L595.977 829.556L597.355 831.665L595.94 832.435L595.295 856.679L592.565 853.937L593.235 857.361L589.823 855.314L591.188 858.043L587.764 857.373L589.128 859.421L582.962 861.48C590.679 860.488 597.268 858.8 605.221 859.433C609.96 859.818 613.075 863.701 613.782 855.996L611.052 857.361L612.417 853.937L608.31 853.254L608.918 857.287L605.916 858.763L605.469 857.51L603.509 858.043L604.873 854.619L602.479 856.666L601.449 853.242L597.355 855.289L600.767 851.517L598.037 850.487L600.642 847.534C600.295 845.822 599.786 845.45 598.037 845.686C597.814 844.606 599.327 845.003 599.762 844.346C601.064 842.398 599.575 840.574 597.342 840.884L600.109 838.514L599.402 836.442L598.037 836.777C597.454 835.847 601.598 832.521 598.024 831.641L598.074 830.648C601.275 830.598 598.285 827.633 598.285 826.851C598.285 826.281 599.774 825.238 599.414 823.427L597.355 823.079C597.181 821.963 599.116 822.273 599.402 821.367C599.886 819.878 598.682 819.047 597.355 818.96L598.732 817.844C598.868 815.982 599.203 815.089 597.342 814.506C597.02 812.967 598.285 813.7 598.533 813.34L598.521 813.365ZM608.98 810.089L600.729 812.595L602.131 847.088H607.615C608.248 839.122 610.469 830.834 612.901 823.253C613.769 820.536 615.941 817.571 615.494 814.891C614.117 816.752 612.479 818.6 610.779 820.151C610.122 820.747 607.491 822.149 607.243 822.347C606.226 823.166 606.821 824.978 604.886 824.482C604.886 822.174 604.7 819.891 605.184 817.595C605.816 814.58 608.248 812.893 608.993 810.101L608.98 810.089ZM611.722 836.814L613.782 835.76L611.735 833.365L608.993 852.547C613.013 852.075 611.263 851.331 611.288 848.899C611.288 848.018 611.933 847.013 611.784 846.12C611.648 845.326 610.06 846.157 610.357 845.016L612.454 844.643C612.367 843.093 613.075 841.269 611.052 841.566L613.137 839.184L611.722 836.802V836.814ZM593.223 849.817C592.826 848.279 591.374 848.502 590.171 848.415C582.23 847.77 572.986 850.165 564.773 849.135L562.378 849.817H593.21H593.223ZM630.904 848.453H614.464V849.817H629.887C630.011 849.817 630.966 848.887 630.916 848.453H630.904ZM627.48 851.195H615.494C615.37 851.195 614.415 852.125 614.464 852.559H626.45C626.574 852.559 627.529 851.629 627.48 851.195ZM589.116 851.877H565.815C565.691 852.882 567.602 853.118 568.272 853.18C570.753 853.453 573.284 853.105 575.778 853.279L589.104 851.877H589.116ZM586.374 854.619H569.239C569.301 855.587 572.329 855.835 573.098 855.897C574.451 856.021 575.791 856.046 577.155 856.021L586.374 854.619ZM584.314 857.361H574.041C575.48 859.52 582.788 859.557 584.314 857.361Z" fill="#4F2B11"/>
<path d="M554.858 820.36H551.434L551.508 815.633C556.483 815.409 558.357 810.111 563.779 811.451C563.655 818.102 561.484 832.569 563.928 838.388C564.412 839.529 566.384 839.728 566.434 841.353C566.446 841.949 565.938 842.966 565.491 842.966H552.128C550.813 840.522 554.87 838.822 554.87 838.512V820.36H554.858ZM561.024 812.816L553.481 817.283C552.873 819.243 556.483 817.878 556.918 818.3C556.372 825.769 558.245 833.884 555.553 840.906H563.084C563.283 840.757 561.024 837.097 561.024 836.452V812.816Z" fill="#4F2B11"/>
<path d="M576.622 810.905C593.025 808.995 595.146 843.14 577.751 843.599C562.527 844.008 561.25 812.692 576.622 810.905ZM575.22 812.99C564.066 815.285 564.376 842.346 578.322 841.44C592.268 840.534 591.139 809.714 575.22 812.99Z" fill="#4F2B11"/>
<path d="M547.997 779.257L546.893 781.962L543.928 781.316C541.409 785.063 544.263 785.163 544.511 786.54C544.622 787.16 542.774 789.418 543.059 790.746L537.724 791.59C537.649 794.357 542.004 793.041 541.148 796.379L530.9 793.612C530.453 788.649 534.969 783.922 538.183 789.58L542.526 788.848C543.419 788.029 537.352 782.21 536.88 781.13C534.287 775.187 544.982 780.311 548.01 779.257H547.997Z" fill="#4F2B11"/>
<path d="M600.754 881.344L599.377 869.012C602.504 869.098 607.653 866.567 608.682 871.034C608.931 872.113 608.186 873.156 608.397 874.012C608.732 875.327 610.916 875.575 610.233 878.106C609.427 881.109 603.322 881.568 600.742 881.344H600.754ZM606.859 878.528L606.263 875.476L602.826 875.86L603.521 879.285L606.871 878.528H606.859Z" fill="#4F2B11"/>
<path d="M588.931 868.433C599.229 866.336 599.602 884.699 587.703 881.027C581.648 879.153 583.038 869.624 588.931 868.433ZM590.122 870.654C586.251 870.852 585.668 879.352 590.135 879.352C594.254 879.352 595.259 870.393 590.122 870.654Z" fill="#4F2B11"/>
<path d="M616.326 865.044C626.798 862.65 627.679 876.434 619.44 877.799C612.033 879.027 608.646 866.794 616.326 865.044ZM620.457 867.824C619.663 867.116 618.038 866.769 617.008 867.054C613.249 868.841 615.47 875.231 619.031 875.69C622.827 876.186 622.505 869.66 620.457 867.824Z" fill="#4F2B11"/>
<path d="M576.771 864.918L575.418 869.695C578.669 868.826 579.798 865.601 583.632 867.648L577.478 871.097L580.208 879.286C576.324 880.055 575.84 876.085 575.406 873.119C573.086 872.536 574.004 875.998 572.701 876.941L569.922 876.531L574.066 864.211L576.771 864.918Z" fill="#4F2B11"/>
<path d="M595.417 748.272C595.479 748.396 596.893 748.409 596.993 750.394C597.166 754.339 591.794 754.091 589.114 753.918L588.432 743.644L594.598 743.297C597.253 744.6 595.02 747.391 595.429 748.272H595.417Z" fill="#4F2B11"/>
<path d="M664.474 808.716C664.275 811.023 665.218 813.815 663.518 815.626C660.975 817.661 659.337 814.907 657.972 814.882C656.607 814.857 655.379 817.004 653.865 816.942C653.158 816.942 653.481 815.465 653.841 814.857C654.734 813.343 658.22 813.108 657.625 811.805C656.818 810.043 654.783 811.47 654.188 811.135L653.518 808.703H664.486L664.474 808.716Z" fill="#4F2B11"/>
<path d="M558.309 762.071L563.073 763.82L561.262 765.433L556.224 764.18L558.197 767.356L556.572 768.969L550.07 761.09C553.06 757.021 559.339 755.147 558.309 762.083V762.071Z" fill="#4F2B11"/>
<path d="M539.101 815.563L528.133 814.88C525.888 801.878 541.533 803.267 539.101 815.563ZM537.042 812.821C537.699 808.652 533.692 807.634 530.491 809.359L530.193 812.833H537.054L537.042 812.821Z" fill="#4F2B11"/>
<path d="M630.048 753.33C639.341 751.407 637.765 767.723 628.348 763.653C623.522 761.569 625.321 754.31 630.048 753.33ZM630.706 755.39C628.05 756.134 627.021 761.345 629.266 762.077C633.758 763.554 635.929 753.913 630.706 755.39Z" fill="#4F2B11"/>
<path d="M662.43 831.33L650.779 832.695L650.804 830.003C652.963 830.189 654.427 829.618 654.588 827.261C654.712 825.462 651.251 825.052 652.839 822.422C654.315 823.228 664.229 829.494 662.43 831.33Z" fill="#4F2B11"/>
<path d="M573.359 758.692H570.964L567.18 749.114C570.617 747.265 577.168 745.838 575.269 752.042C574.637 754.102 571.311 754.412 573.346 758.692H573.359Z" fill="#4F2B11"/>
<path d="M579.511 744.984C579.87 747.242 580.019 753.582 583.282 753.259C586.546 752.937 583.258 746.882 583.022 744.624C585.603 740.989 587.005 750.331 586.967 751.535C586.831 755.331 580.95 756.92 578.927 753.47C577.91 751.721 575.18 743.718 579.523 744.984H579.511Z" fill="#4F2B11"/>
<path d="M664.479 805.279L662.407 804.833L661.687 801.905L659.69 801.867V805.974C657.94 806.26 658.61 805.813 658.238 805.007C657.308 803.034 658.461 802.041 654.9 802.55L655.471 806.247L653.536 807.339L652.928 800.565L662.68 799.188L663.71 800.255L664.491 805.279H664.479Z" fill="#4F2B11"/>
<path d="M530.876 800.483H533.606L534.623 797.754C536.41 799.999 533.209 801.538 537.713 801.86L538.407 797.741H540.455L538.668 804.54L528.891 802.456C528.519 801.116 529.015 799.826 529.3 798.548C529.474 797.741 529.139 795.781 530.529 796.376C532.303 797.133 530.752 799.305 530.889 800.471L530.876 800.483Z" fill="#4F2B11"/>
<path d="M562.394 755.953L566.501 755.27C566.947 757.38 563.573 756.685 564.454 759.03C565.335 761.375 570.161 757.094 569.913 759.725C569.876 760.122 565.31 763.236 564.205 762.752L559.131 754.228C559.429 752.789 565.272 749.96 565.111 752.181C565.062 752.826 561.352 753.732 562.394 755.953Z" fill="#4F2B11"/>
<path d="M539.086 816.938C538.664 818.637 539.88 820.635 539.793 822.087C539.632 824.68 531.034 824.283 528.813 824.481C529.421 822.992 527.299 819.109 529.172 818.315C531.046 817.521 529.57 822.831 531.89 822.409L532.932 818.302L535.885 821.64L537.721 821.032L537.039 816.938H539.086Z" fill="#4F2B11"/>
<path d="M621.311 749.778C619.934 750.002 619.5 748.587 618.197 748.389C614.76 747.867 612.726 752.471 614.822 754.555C616.373 756.094 619.574 754.952 619.264 757.309C614.239 758.017 610.281 754.902 611.882 749.567C612.974 745.895 621.51 744.493 621.324 749.766L621.311 749.778Z" fill="#4F2B11"/>
<path d="M645.298 762.827C645.671 763.336 644.777 764.751 644.268 764.862C643.462 765.036 637.531 758.919 641.191 767.604L638.114 765.557C636.774 766.748 635.844 768.684 633.66 768.287C631.973 766.599 640.112 761.525 639.839 759.391L645.298 762.827Z" fill="#4F2B11"/>
<path d="M536.347 826.531V829.273L541.149 828.578L541.819 830.303L531.533 833.095L530.193 827.214L532.241 830.191C536.645 832.152 532.96 826.283 536.347 826.531Z" fill="#4F2B11"/>
<path d="M552.801 773.09C553.322 773.586 549.86 778.76 548.446 778.512L540.48 772.06L542.168 770.484L548.347 775.162L552.789 773.078L552.801 773.09Z" fill="#4F2B11"/>
<path d="M601.449 742.922L601.399 751.409L605.556 752.525L604.563 754.349L598.707 753.89L599.389 742.922H601.449Z" fill="#4F2B11"/>
<path d="M663.796 819.69V822.419L652.84 821.055L653.522 818.312L663.796 819.69Z" fill="#4F2B11"/>
<path d="M611.039 744.32L608.942 754.556L606.25 754.594L608.347 744.358L611.039 744.32Z" fill="#4F2B11"/>
<path d="M644.516 857.262C641.575 859.123 638.486 854.619 641.873 852.87C644.913 851.294 646.116 856.244 644.516 857.262Z" fill="#4F2B11"/>
<path d="M549.809 852.678C551.695 852.343 554.139 854.948 551.819 856.735C547.873 859.775 546.595 853.249 549.809 852.678Z" fill="#4F2B11"/>
<path d="M577.231 815.031C584.688 815.962 583.845 835.379 579.924 838.233C571.437 844.412 569.588 815.738 577.231 815.031ZM576.251 836.632C576.574 836.98 577.331 837.141 577.815 837.315C582.405 834.97 581.897 817.885 577.753 816.967C575.953 816.57 574.862 821.533 574.725 822.749C574.403 825.602 574.415 834.622 576.264 836.632H576.251Z" fill="#4F2B11"/>
<g filter="url(#filter1_ddd_1787_795)">
<circle cx="662.917" cy="659.591" r="465.044" stroke="#4F2B11" stroke-width="15" stroke-miterlimit="4.28366" stroke-dasharray="20 1" shape-rendering="crispEdges"/>
</g>
<path d="M148.075 469.305C155.949 471.447 162.366 474.72 167.328 479.124C172.289 483.528 175.65 488.631 177.412 494.435C179.173 500.239 179.188 506.324 177.456 512.691C175.723 519.058 172.627 524.296 168.168 528.407C163.708 532.518 158.224 535.215 151.716 536.498C145.207 537.781 138.016 537.351 130.143 535.208C122.269 533.066 115.852 529.793 110.891 525.389C105.929 520.986 102.568 515.882 100.806 510.078C99.0447 504.274 99.0301 498.189 100.763 491.822C102.495 485.456 105.591 480.217 110.05 476.106C114.51 471.995 119.994 469.298 126.502 468.015C133.011 466.733 140.202 467.162 148.075 469.305ZM145.695 478.053C139.231 476.294 133.481 475.891 128.446 476.844C123.417 477.772 119.261 479.76 115.978 482.808C112.702 485.832 110.449 489.604 109.219 494.123C107.989 498.643 108.017 503.049 109.303 507.34C110.595 511.606 113.171 515.426 117.03 518.799C120.895 522.148 126.059 524.701 132.523 526.46C138.987 528.219 144.734 528.634 149.763 527.706C154.798 526.753 158.954 524.765 162.23 521.741C165.513 518.694 167.769 514.91 168.999 510.39C170.229 505.87 170.198 501.476 168.905 497.21C167.619 492.919 165.044 489.099 161.179 485.751C157.32 482.378 152.159 479.812 145.695 478.053Z" fill="black"/>
<path d="M195.42 464.001L125.157 431.619L129.078 423.111L160.367 437.531L177.633 400.066L146.344 385.646L150.265 377.137L220.529 409.519L216.607 418.027L185.181 403.544L167.915 441.009L199.341 455.492L195.42 464.001Z" fill="black"/>
<path d="M233.308 387.696L227.857 395.866L179.263 329.3L184.63 321.255L264.754 340.558L259.303 348.728L192.296 331.818L191.96 332.321L233.308 387.696ZM210.18 367.908L232.151 334.974L239.064 339.586L217.094 372.52L210.18 367.908Z" fill="black"/>
<path d="M297.157 303.06L243.481 247.344L262.96 228.578C266.841 224.839 270.689 222.426 274.503 221.339C278.3 220.235 281.898 220.213 285.298 221.273C288.68 222.316 291.682 224.198 294.303 226.918C296.609 229.312 298.088 231.7 298.738 234.081C299.406 236.444 299.488 238.744 298.983 240.978C298.497 243.196 297.665 245.291 296.488 247.264L297.012 247.808C298.822 246.274 301.113 245.221 303.884 244.65C306.655 244.078 309.6 244.249 312.718 245.162C315.835 246.075 318.809 248.001 321.64 250.939C324.331 253.732 326.116 256.855 326.996 260.309C327.875 263.763 327.575 267.462 326.094 271.407C324.613 275.351 321.679 279.437 317.289 283.666L297.157 303.06ZM298.138 290.575L311.523 277.68C315.931 273.435 318.238 269.568 318.446 266.081C318.654 262.558 317.578 259.573 315.22 257.124C313.402 255.238 311.244 253.96 308.746 253.29C306.229 252.602 303.619 252.633 300.916 253.384C298.195 254.117 295.619 255.654 293.189 257.996L279.477 271.205L298.138 290.575ZM273.816 265.329L286.331 253.272C288.362 251.316 289.809 249.152 290.673 246.781C291.555 244.393 291.777 242.011 291.341 239.634C290.922 237.239 289.769 235.062 287.882 233.104C285.524 230.655 282.67 229.4 279.323 229.337C275.958 229.257 272.426 230.999 268.726 234.563L255.994 246.829L273.816 265.329Z" fill="black"/>
<path d="M347.812 160.822L355.479 155.438L384.917 197.359C387.957 201.687 389.65 206.267 389.998 211.101C390.352 215.899 389.372 220.573 387.057 225.122C384.729 229.65 381.081 233.658 376.114 237.146C371.147 240.634 366.138 242.705 361.089 243.358C356.025 243.991 351.286 243.333 346.872 241.386C342.464 239.404 338.74 236.249 335.701 231.921L306.262 190L313.929 184.616L342.933 225.918C345.104 229.01 347.717 231.284 350.77 232.74C353.809 234.175 357.071 234.701 360.555 234.316C364.045 233.896 367.553 232.448 371.077 229.973C374.601 227.499 377.153 224.691 378.733 221.55C380.299 218.389 380.912 215.143 380.572 211.811C380.239 208.445 378.987 205.216 376.816 202.124L347.812 160.822Z" fill="black"/>
<path d="M449.545 192.321L419.737 120.928L462.823 102.938L466.026 110.607L431.584 124.988L441.656 149.111L473.866 135.662L477.069 143.331L444.858 156.78L454.988 181.042L489.988 166.429L493.19 174.098L449.545 192.321Z" fill="black"/>
<path d="M552.664 77.45L571.422 152.508L562.626 154.706L506.998 105.995L506.265 106.178L520.992 165.111L511.903 167.382L493.146 92.3242L501.942 90.126L557.753 138.947L558.486 138.763L543.722 79.6848L552.664 77.45Z" fill="black"/>
<path d="M580.525 72.5718L591.212 71.6346L615.742 105.737L616.645 105.657L634.865 67.8069L645.553 66.8697L621.678 114.621L624.463 146.382L615.13 147.2L612.345 115.439L580.525 72.5718Z" fill="black"/>
<path d="M679.265 67.6885L677.761 145.04L668.394 144.858L669.898 67.5064L679.265 67.6885Z" fill="black"/>
<path d="M738.156 149.851L728.52 147.944L771.404 77.5631L780.891 79.4401L793.743 160.849L784.108 158.942L774.069 90.567L773.476 90.4497L738.156 149.851ZM747.579 120.908L786.416 128.592L784.803 136.745L745.966 129.061L747.579 120.908Z" fill="black"/>
<path d="M876.404 133.541C876.503 130.867 876.262 128.35 875.682 125.989C875.134 123.614 874.234 121.431 872.981 119.44C871.752 117.457 870.169 115.707 868.232 114.189C866.295 112.671 864.015 111.429 861.392 110.463C857.09 108.879 852.77 108.55 848.431 109.475C844.091 110.4 840.086 112.643 836.414 116.202C832.742 119.761 829.749 124.684 827.434 130.97C825.12 137.257 824.218 142.95 824.729 148.049C825.24 153.149 826.883 157.47 829.657 161.014C832.432 164.558 836.064 167.157 840.554 168.81C844.714 170.342 848.703 170.804 852.523 170.197C856.375 169.576 859.787 167.961 862.76 165.352C865.766 162.728 868.087 159.195 869.722 154.752L872.208 156.311L850.371 148.271L853.242 140.472L880.893 150.652L878.022 158.451C875.82 164.43 872.63 169.16 868.45 172.64C864.295 176.128 859.535 178.267 854.172 179.057C848.842 179.832 843.293 179.158 837.527 177.035C831.098 174.668 826.007 171.076 822.252 166.258C818.521 161.45 816.323 155.756 815.659 149.178C815.018 142.609 816.107 135.495 818.926 127.838C821.04 122.095 823.71 117.214 826.934 113.195C830.19 109.16 833.833 106.047 837.861 103.853C841.889 101.659 846.158 100.413 850.669 100.115C855.18 99.8166 859.764 100.525 864.42 102.239C868.248 103.648 871.604 105.541 874.486 107.917C877.401 110.278 879.771 112.989 881.596 116.05C883.454 119.095 884.722 122.394 885.4 125.944C886.088 129.471 886.114 133.118 885.479 136.883L876.404 133.541Z" fill="black"/>
<path d="M885.582 195.978L922.838 128.173L963.759 150.657L959.757 157.941L927.046 139.968L914.458 162.879L945.05 179.687L941.048 186.971L910.456 170.162L897.795 193.206L931.035 211.47L927.033 218.753L885.582 195.978Z" fill="black"/>
<path d="M1046.5 244.133C1047.55 241.672 1048.23 239.237 1048.54 236.825C1048.88 234.412 1048.83 232.051 1048.37 229.743C1047.94 227.451 1047.09 225.249 1045.83 223.136C1044.56 221.024 1042.88 219.046 1040.78 217.202C1037.33 214.18 1033.42 212.321 1029.04 211.626C1024.66 210.931 1020.11 211.585 1015.41 213.588C1010.7 215.591 1006.14 219.111 1001.72 224.146C997.305 229.182 994.419 234.172 993.064 239.114C991.71 244.057 991.691 248.68 993.008 252.984C994.324 257.288 996.781 261.018 1000.38 264.174C1003.71 267.097 1007.27 268.961 1011.05 269.767C1014.87 270.57 1018.63 270.288 1022.34 268.921C1026.09 267.552 1029.53 265.087 1032.65 261.528L1034.41 263.876L1016.92 248.53L1022.4 242.282L1044.55 261.714L1039.07 267.961C1034.86 272.751 1030.19 276.019 1025.04 277.766C1019.91 279.529 1014.7 279.816 1009.41 278.627C1004.15 277.436 999.218 274.814 994.598 270.762C989.449 266.245 985.987 261.064 984.213 255.219C982.458 249.391 982.451 243.288 984.194 236.91C985.955 230.549 989.526 224.301 994.907 218.168C998.943 213.567 1003.19 209.97 1007.64 207.377C1012.13 204.781 1016.65 203.183 1021.19 202.582C1025.74 201.982 1030.17 202.352 1034.49 203.694C1038.81 205.036 1042.83 207.342 1046.56 210.614C1049.63 213.305 1052.08 216.276 1053.91 219.529C1055.79 222.78 1057.03 226.161 1057.63 229.673C1058.27 233.182 1058.27 236.716 1057.63 240.273C1057 243.812 1055.72 247.224 1053.77 250.51L1046.5 244.133Z" fill="black"/>
<path d="M1032.69 305.577L1092.06 255.963L1108.82 276.021C1112.7 280.659 1115.09 285.128 1115.99 289.428C1116.91 293.712 1116.6 297.716 1115.05 301.439C1113.5 305.163 1110.98 308.486 1107.48 311.409C1103.98 314.332 1100.28 316.21 1096.38 317.041C1092.48 317.872 1088.52 317.455 1084.5 315.79C1080.51 314.11 1076.59 310.97 1072.74 306.371L1059.18 290.139L1065.67 284.712L1079.04 300.712C1081.69 303.882 1084.29 306.045 1086.83 307.202C1089.39 308.378 1091.88 308.691 1094.31 308.139C1096.77 307.591 1099.19 306.323 1101.57 304.337C1103.94 302.35 1105.65 300.169 1106.68 297.795C1107.72 295.42 1107.9 292.853 1107.24 290.094C1106.59 287.318 1104.93 284.327 1102.25 281.119L1091.69 268.481L1038.7 312.766L1032.69 305.577ZM1082.71 311.232L1068.26 348.128L1061.28 339.78L1075.93 303.116L1082.71 311.232Z" fill="black"/>
<path d="M1079.47 364.608L1074.35 356.232L1155.16 340.058L1160.21 348.305L1109.07 412.933L1103.94 404.557L1147.4 350.831L1147.09 350.315L1079.47 364.608ZM1107.14 351.919L1127.82 385.682L1120.73 390.022L1100.05 356.259L1107.14 351.919Z" fill="black"/>
<path d="M1124.93 448.75L1115.75 426.713L1187.16 396.947L1196.75 419.96C1199.64 426.888 1200.68 433.411 1199.87 439.531C1199.09 445.641 1196.59 451.119 1192.36 455.965C1188.15 460.801 1182.36 464.759 1174.96 467.841C1167.52 470.941 1160.57 472.285 1154.09 471.874C1147.64 471.452 1141.92 469.308 1136.92 465.442C1131.95 461.566 1127.96 456.002 1124.93 448.75ZM1127.02 432.163L1132.37 444.994C1134.83 450.899 1138.01 455.317 1141.91 458.25C1145.8 461.182 1150.25 462.725 1155.25 462.877C1160.26 463.029 1165.66 461.894 1171.47 459.472C1177.24 457.069 1181.81 454.059 1185.19 450.442C1188.59 446.815 1190.62 442.665 1191.29 437.992C1191.99 433.31 1191.17 428.179 1188.85 422.6L1183.09 408.792L1127.02 432.163Z" fill="black"/>
<path d="M1149.65 496.476L1224.64 477.472L1236.11 522.733L1228.06 524.774L1218.89 488.595L1193.55 495.016L1202.12 528.852L1194.06 530.894L1185.49 497.058L1160 503.516L1169.32 540.282L1161.26 542.323L1149.65 496.476Z" fill="black"/>
<path d="M1181.25 850.18C1173.38 848.037 1166.96 844.764 1162 840.36C1157.04 835.957 1153.68 830.853 1151.91 825.049C1150.15 819.246 1150.14 813.16 1151.87 806.794C1153.6 800.427 1156.7 795.188 1161.16 791.077C1165.62 786.966 1171.1 784.269 1177.61 782.986C1184.12 781.704 1191.31 782.134 1199.18 784.276C1207.06 786.418 1213.47 789.691 1218.44 794.095C1223.4 798.499 1226.76 803.603 1228.52 809.406C1230.28 815.21 1230.3 821.295 1228.56 827.662C1226.83 834.029 1223.74 839.268 1219.28 843.379C1214.82 847.49 1209.33 850.186 1202.82 851.469C1196.32 852.752 1189.12 852.322 1181.25 850.18ZM1183.63 841.431C1190.1 843.19 1195.85 843.593 1200.88 842.641C1205.91 841.712 1210.07 839.724 1213.35 836.676C1216.62 833.653 1218.88 829.881 1220.11 825.361C1221.34 820.841 1221.31 816.436 1220.02 812.145C1218.73 807.878 1216.16 804.058 1212.3 800.685C1208.43 797.337 1203.27 794.783 1196.8 793.024C1190.34 791.265 1184.59 790.85 1179.56 791.779C1174.53 792.731 1170.37 794.719 1167.1 797.743C1163.81 800.791 1161.56 804.575 1160.33 809.095C1159.1 813.615 1159.13 818.008 1160.42 822.275C1161.71 826.566 1164.28 830.385 1168.15 833.734C1172.01 837.107 1177.17 839.672 1183.63 841.431Z" fill="black"/>
<path d="M1133.91 855.484L1204.17 887.865L1200.25 896.374L1168.96 881.954L1151.69 919.419L1182.98 933.838L1179.06 942.347L1108.8 909.965L1112.72 901.457L1144.15 915.94L1161.41 878.475L1129.98 863.992L1133.91 855.484Z" fill="black"/>
<path d="M1096.02 931.789L1101.47 923.618L1150.06 990.185L1144.7 998.23L1064.57 978.927L1070.02 970.756L1137.03 987.666L1137.37 987.163L1096.02 931.789ZM1119.15 951.577L1097.18 984.511L1090.26 979.899L1112.23 946.965L1119.15 951.577Z" fill="black"/>
<path d="M1032.17 1016.42L1085.85 1072.14L1066.37 1090.91C1062.48 1094.65 1058.64 1097.06 1054.82 1098.15C1051.03 1099.25 1047.43 1099.27 1044.03 1098.21C1040.65 1097.17 1037.64 1095.29 1035.02 1092.57C1032.72 1090.17 1031.24 1087.78 1030.59 1085.4C1029.92 1083.04 1029.84 1080.74 1030.34 1078.51C1030.83 1076.29 1031.66 1074.19 1032.84 1072.22L1032.31 1071.68C1030.5 1073.21 1028.21 1074.26 1025.44 1074.83C1022.67 1075.41 1019.73 1075.24 1016.61 1074.32C1013.49 1073.41 1010.52 1071.48 1007.69 1068.55C1005 1065.75 1003.21 1062.63 1002.33 1059.18C1001.45 1055.72 1001.75 1052.02 1003.23 1048.08C1004.71 1044.13 1007.65 1040.05 1012.04 1035.82L1032.17 1016.42ZM1031.19 1028.91L1017.8 1041.8C1013.4 1046.05 1011.09 1049.92 1010.88 1053.4C1010.67 1056.93 1011.75 1059.91 1014.11 1062.36C1015.92 1064.25 1018.08 1065.52 1020.58 1066.19C1023.1 1066.88 1025.71 1066.85 1028.41 1066.1C1031.13 1065.37 1033.71 1063.83 1036.14 1061.49L1049.85 1048.28L1031.19 1028.91ZM1055.51 1054.16L1043 1066.21C1040.96 1068.17 1039.52 1070.33 1038.65 1072.7C1037.77 1075.09 1037.55 1077.47 1037.99 1079.85C1038.4 1082.25 1039.56 1084.42 1041.44 1086.38C1043.8 1088.83 1046.66 1090.08 1050 1090.15C1053.37 1090.23 1056.9 1088.49 1060.6 1084.92L1073.33 1072.66L1055.51 1054.16Z" fill="black"/>
<path d="M981.515 1158.66L973.848 1164.05L944.409 1122.13C941.37 1117.8 939.676 1113.22 939.328 1108.38C938.974 1103.59 939.955 1098.91 942.269 1094.36C944.598 1089.83 948.245 1085.83 953.212 1082.34C958.179 1078.85 963.188 1076.78 968.237 1076.13C973.302 1075.49 978.041 1076.15 982.455 1078.1C986.863 1080.08 990.586 1083.24 993.626 1087.56L1023.06 1129.48L1015.4 1134.87L986.393 1093.57C984.222 1090.47 981.61 1088.2 978.556 1086.74C975.517 1085.31 972.255 1084.78 968.771 1085.17C965.281 1085.59 961.773 1087.04 958.249 1089.51C954.725 1091.99 952.173 1094.79 950.593 1097.93C949.028 1101.1 948.415 1104.34 948.754 1107.67C949.087 1111.04 950.339 1114.27 952.51 1117.36L981.515 1158.66Z" fill="black"/>
<path d="M879.781 1127.16L909.59 1198.56L866.503 1216.55L863.301 1208.88L897.742 1194.5L887.67 1170.37L855.46 1183.82L852.258 1176.15L884.468 1162.7L874.338 1138.44L839.339 1153.06L836.137 1145.39L879.781 1127.16Z" fill="black"/>
<path d="M776.662 1242.03L757.904 1166.98L766.7 1164.78L822.328 1213.49L823.061 1213.31L808.334 1154.37L817.423 1152.1L836.18 1227.16L827.385 1229.36L771.573 1180.54L770.84 1180.72L785.604 1239.8L776.662 1242.03Z" fill="black"/>
<path d="M748.801 1246.91L738.114 1247.85L713.584 1213.75L712.681 1213.83L694.461 1251.68L683.773 1252.61L707.648 1204.86L704.863 1173.1L714.196 1172.28L716.981 1204.05L748.801 1246.91Z" fill="black"/>
<path d="M650.061 1251.8L651.565 1174.44L660.932 1174.63L659.428 1251.98L650.061 1251.8Z" fill="black"/>
<path d="M591.171 1169.63L600.806 1171.54L557.922 1241.92L548.435 1240.04L535.584 1158.64L545.219 1160.54L555.258 1228.92L555.851 1229.03L591.171 1169.63ZM581.747 1198.58L542.911 1190.89L544.524 1182.74L583.36 1190.42L581.747 1198.58Z" fill="black"/>
<path d="M452.922 1185.94C452.823 1188.62 453.064 1191.13 453.644 1193.49C454.192 1195.87 455.092 1198.05 456.345 1200.04C457.574 1202.03 459.157 1203.78 461.094 1205.3C463.031 1206.81 465.311 1208.06 467.935 1209.02C472.236 1210.6 476.556 1210.93 480.895 1210.01C485.235 1209.08 489.24 1206.84 492.912 1203.28C496.584 1199.72 499.578 1194.8 501.892 1188.51C504.207 1182.23 505.108 1176.53 504.597 1171.44C504.086 1166.34 502.443 1162.01 499.669 1158.47C496.894 1154.93 493.262 1152.33 488.772 1150.67C484.612 1149.14 480.623 1148.68 476.803 1149.29C472.951 1149.91 469.539 1151.52 466.566 1154.13C463.56 1156.76 461.239 1160.29 459.604 1164.73L457.118 1163.17L478.956 1171.21L476.084 1179.01L448.433 1168.83L451.304 1161.03C453.506 1155.05 456.696 1150.32 460.876 1146.84C465.032 1143.36 469.791 1141.22 475.154 1140.43C480.485 1139.65 486.033 1140.33 491.8 1142.45C498.228 1144.82 503.319 1148.41 507.074 1153.23C510.805 1158.03 513.003 1163.73 513.668 1170.31C514.308 1176.88 513.219 1183.99 510.4 1191.65C508.286 1197.39 505.617 1202.27 502.392 1206.29C499.136 1210.32 495.494 1213.44 491.466 1215.63C487.438 1217.83 483.168 1219.07 478.657 1219.37C474.146 1219.67 469.562 1218.96 464.907 1217.25C461.078 1215.84 457.723 1213.94 454.84 1211.57C451.925 1209.21 449.556 1206.5 447.73 1203.43C445.873 1200.39 444.604 1197.09 443.926 1193.54C443.238 1190.01 443.212 1186.37 443.847 1182.6L452.922 1185.94Z" fill="black"/>
<path d="M443.744 1123.51L406.489 1191.31L365.567 1168.83L369.569 1161.54L402.28 1179.52L414.868 1156.61L384.276 1139.8L388.278 1132.51L418.87 1149.32L431.531 1126.28L398.291 1108.01L402.293 1100.73L443.744 1123.51Z" fill="black"/>
<path d="M282.824 1075.35C281.771 1077.81 281.092 1080.25 280.785 1082.66C280.444 1085.07 280.5 1087.43 280.954 1089.74C281.389 1092.03 282.238 1094.24 283.501 1096.35C284.763 1098.46 286.445 1100.44 288.547 1102.28C291.992 1105.3 295.906 1107.16 300.288 1107.86C304.67 1108.55 309.214 1107.9 313.919 1105.9C318.624 1103.89 323.186 1100.37 327.604 1095.34C332.021 1090.3 334.907 1085.31 336.262 1080.37C337.616 1075.43 337.635 1070.8 336.318 1066.5C335.002 1062.2 332.545 1058.47 328.948 1055.31C325.616 1052.39 322.059 1050.52 318.276 1049.72C314.458 1048.91 310.693 1049.2 306.982 1050.56C303.234 1051.93 299.799 1054.4 296.677 1057.96L294.917 1055.61L312.411 1070.95L306.93 1077.2L284.779 1057.77L290.26 1051.52C294.462 1046.73 299.138 1043.46 304.288 1041.72C309.42 1039.96 314.63 1039.67 319.919 1040.86C325.172 1042.05 330.108 1044.67 334.728 1048.72C339.877 1053.24 343.339 1058.42 345.113 1064.27C346.868 1070.09 346.875 1076.2 345.133 1082.57C343.371 1088.94 339.8 1095.18 334.419 1101.32C330.383 1105.92 326.139 1109.51 321.687 1112.11C317.199 1114.7 312.681 1116.3 308.134 1116.9C303.587 1117.5 299.154 1117.13 294.837 1115.79C290.52 1114.45 286.497 1112.14 282.767 1108.87C279.7 1106.18 277.248 1103.21 275.412 1099.96C273.539 1096.7 272.301 1093.32 271.697 1089.81C271.057 1086.3 271.058 1082.77 271.699 1079.21C272.325 1075.67 273.609 1072.26 275.554 1068.97L282.824 1075.35Z" fill="black"/>
<path d="M296.633 1013.91L237.27 1063.52L220.506 1043.46C216.63 1038.83 214.241 1034.36 213.338 1030.06C212.416 1025.77 212.73 1021.77 214.279 1018.05C215.827 1014.32 218.351 1011 221.848 1008.08C225.346 1005.15 229.045 1003.27 232.945 1002.44C236.846 1001.61 240.805 1002.03 244.821 1003.69C248.819 1005.37 252.74 1008.51 256.584 1013.11L270.15 1029.35L263.657 1034.77L250.285 1018.77C247.636 1015.6 245.04 1013.44 242.498 1012.28C239.939 1011.11 237.446 1010.79 235.019 1011.35C232.556 1011.89 230.136 1013.16 227.759 1015.15C225.382 1017.13 223.677 1019.31 222.642 1021.69C221.607 1024.06 221.422 1026.63 222.087 1029.39C222.733 1032.17 224.396 1035.16 227.077 1038.37L237.639 1051L290.625 1006.72L296.633 1013.91ZM246.613 1008.25L261.07 971.356L268.047 979.704L253.396 1016.37L246.613 1008.25Z" fill="black"/>
<path d="M249.852 954.876L254.981 963.253L174.167 979.427L169.116 971.179L220.261 906.552L225.39 914.928L181.922 968.654L182.237 969.169L249.852 954.876ZM222.185 967.565L201.511 933.802L208.598 929.462L229.272 963.225L222.185 967.565Z" fill="black"/>
<path d="M204.393 870.735L213.579 892.772L142.168 922.537L132.575 899.524C129.688 892.597 128.647 886.073 129.452 879.953C130.234 873.843 132.739 868.365 136.967 863.519C141.172 858.684 146.971 854.725 154.363 851.644C161.802 848.543 168.758 847.199 175.233 847.611C181.684 848.032 187.407 850.176 192.402 854.042C197.373 857.918 201.37 863.482 204.393 870.735ZM202.303 887.322L196.955 874.49C194.494 868.586 191.315 864.167 187.419 861.235C183.523 858.302 179.074 856.76 174.072 856.607C169.07 856.455 163.663 857.59 157.851 860.012C152.086 862.415 147.516 865.425 144.14 869.043C140.74 872.67 138.705 876.819 138.033 881.492C137.338 886.175 138.154 891.305 140.479 896.884L146.234 910.692L202.303 887.322Z" fill="black"/>
<path d="M179.68 823.008L104.684 842.012L93.2147 796.751L101.271 794.71L110.439 830.889L135.779 824.468L127.205 790.632L135.261 788.591L143.835 822.427L169.322 815.968L160.006 779.203L168.062 777.161L179.68 823.008Z" fill="black"/>
<path d="M106.416 610.094L117.642 644.643H153.969L124.58 665.995L135.805 700.545L106.416 679.192L77.0268 700.545L88.2525 665.995L58.8632 644.643H95.1903L106.416 610.094Z" fill="#4F2B11"/>
<path d="M1217.42 610.094L1228.64 644.643H1264.97L1235.58 665.995L1246.81 700.545L1217.42 679.192L1188.03 700.545L1199.25 665.995L1169.86 644.643H1206.19L1217.42 610.094Z" fill="#4F2B11"/>
</g>
<rect x="42.416" y="39.0938" width="1241" height="1241" rx="620.5" stroke="#4F2B11" stroke-width="20"/>
</g>
<defs>
<filter id="filter0_ddddd_1787_795" x="8.7738e-05" y="0.00253272" width="1341.42" height="1335.09" filterUnits="userSpaceOnUse" color-interpolation-filters="sRGB">
<feFlood flood-opacity="0" result="BackgroundImageFix"/>
<feColorMatrix in="SourceAlpha" type="matrix" values="0 0 0 0 0 0 0 0 0 0 0 0 0 0 0 0 0 0 127 0" result="hardAlpha"/>
<feOffset dy="3.32471"/>
<feGaussianBlur stdDeviation="1.66236"/>
<feComposite in2="hardAlpha" operator="out"/>
<feColorMatrix type="matrix" values="0 0 0 0 0 0 0 0 0 0 0 0 0 0 0 0 0 0 0.25 0"/>
<feBlend mode="normal" in2="BackgroundImageFix" result="effect1_dropShadow_1787_795"/>
<feColorMatrix in="SourceAlpha" type="matrix" values="0 0 0 0 0 0 0 0 0 0 0 0 0 0 0 0 0 0 127 0" result="hardAlpha"/>
<feOffset dy="3.32471"/>
<feGaussianBlur stdDeviation="16.208"/>
<feComposite in2="hardAlpha" operator="out"/>
<feColorMatrix type="matrix" values="0 0 0 0 0 0 0 0 0 0 0 0 0 0 0 0 0 0 0.25 0"/>
<feBlend mode="normal" in2="effect1_dropShadow_1787_795" result="effect2_dropShadow_1787_795"/>
<feColorMatrix in="SourceAlpha" type="matrix" values="0 0 0 0 0 0 0 0 0 0 0 0 0 0 0 0 0 0 127 0" result="hardAlpha"/>
<feOffset dy="4"/>
<feGaussianBlur stdDeviation="2"/>
<feComposite in2="hardAlpha" operator="out"/>
<feColorMatrix type="matrix" values="0 0 0 0 0 0 0 0 0 0 0 0 0 0 0 0 0 0 0.25 0"/>
<feBlend mode="normal" in2="effect2_dropShadow_1787_795" result="effect3_dropShadow_1787_795"/>
<feColorMatrix in="SourceAlpha" type="matrix" values="0 0 0 0 0 0 0 0 0 0 0 0 0 0 0 0 0 0 127 0" result="hardAlpha"/>
<feOffset dx="13" dy="9"/>
<feGaussianBlur stdDeviation="2"/>
<feComposite in2="hardAlpha" operator="out"/>
<feColorMatrix type="matrix" values="0 0 0 0 0 0 0 0 0 0 0 0 0 0 0 0 0 0 0.25 0"/>
<feBlend mode="normal" in2="effect3_dropShadow_1787_795" result="effect4_dropShadow_1787_795"/>
<feColorMatrix in="SourceAlpha" type="matrix" values="0 0 0 0 0 0 0 0 0 0 0 0 0 0 0 0 0 0 127 0" result="hardAlpha"/>
<feOffset dx="27" dy="24"/>
<feGaussianBlur stdDeviation="10.5"/>
<feComposite in2="hardAlpha" operator="out"/>
<feColorMatrix type="matrix" values="0 0 0 0 0 0 0 0 0 0 0 0 0 0 0 0 0 0 0.25 0"/>
<feBlend mode="normal" in2="effect4_dropShadow_1787_795" result="effect5_dropShadow_1787_795"/>
<feBlend mode="normal" in="SourceGraphic" in2="effect5_dropShadow_1787_795" result="shape"/>
</filter>
<filter id="filter1_ddd_1787_795" x="165.373" y="169.047" width="995.088" height="995.086" filterUnits="userSpaceOnUse" color-interpolation-filters="sRGB">
<feFlood flood-opacity="0" result="BackgroundImageFix"/>
<feColorMatrix in="SourceAlpha" type="matrix" values="0 0 0 0 0 0 0 0 0 0 0 0 0 0 0 0 0 0 127 0" result="hardAlpha"/>
<feOffset dy="7"/>
<feGaussianBlur stdDeviation="12.5"/>
<feComposite in2="hardAlpha" operator="out"/>
<feColorMatrix type="matrix" values="0 0 0 0 0 0 0 0 0 0 0 0 0 0 0 0 0 0 0.25 0"/>
<feBlend mode="normal" in2="BackgroundImageFix" result="effect1_dropShadow_1787_795"/>
<feColorMatrix in="SourceAlpha" type="matrix" values="0 0 0 0 0 0 0 0 0 0 0 0 0 0 0 0 0 0 127 0" result="hardAlpha"/>
<feOffset dy="4"/>
<feGaussianBlur stdDeviation="2"/>
<feComposite in2="hardAlpha" operator="out"/>
<feColorMatrix type="matrix" values="0 0 0 0 0 0 0 0 0 0 0 0 0 0 0 0 0 0 0.25 0"/>
<feBlend mode="normal" in2="effect1_dropShadow_1787_795" result="effect2_dropShadow_1787_795"/>
<feColorMatrix in="SourceAlpha" type="matrix" values="0 0 0 0 0 0 0 0 0 0 0 0 0 0 0 0 0 0 127 0" result="hardAlpha"/>
<feOffset dy="4"/>
<feGaussianBlur stdDeviation="2"/>
<feComposite in2="hardAlpha" operator="out"/>
<feColorMatrix type="matrix" values="0 0 0 0 0 0 0 0 0 0 0 0 0 0 0 0 0 0 0.25 0"/>
<feBlend mode="normal" in2="effect2_dropShadow_1787_795" result="effect3_dropShadow_1787_795"/>
<feBlend mode="normal" in="SourceGraphic" in2="effect3_dropShadow_1787_795" result="shape"/>
</filter>
<radialGradient id="paint0_radial_1787_795" cx="0" cy="0" r="1" gradientUnits="userSpaceOnUse" gradientTransform="translate(452.416 410.094) rotate(53.4877) scale(977.319)">
<stop stop-color="#FDE8CB"/>
<stop offset="0.687168" stop-color="#FFDCAC"/>
</radialGradient>
<clipPath id="clip0_1787_795">
<rect x="52.416" y="49.0938" width="1221" height="1221" rx="610.5" fill="white"/>
</clipPath>
</defs>
</svg>
